<svg height="512pt" viewBox="0 -50 512 512" width="512pt" xmlns="http://www.w3.org/2000/svg"><path d="m360.28125 0h-63.96875v412.160156h63.96875c83.792969 0 151.71875-92.265625 151.71875-206.078125 0-113.816406-67.925781-206.082031-151.71875-206.082031zm0 0" fill="#efd4bf"/><path d="m360.28125 0h-63.96875v205.335938h151.714844s33.667968 11.722656 61.878906 35.070312c1.375-11.164062 2.09375-22.628906 2.09375-34.324219 0-113.816406-67.925781-206.082031-151.71875-206.082031zm0 0" fill="#e0c1ad"/><path d="m448.027344 206.082031c0-113.816406-67.925782-206.082031-151.714844-206.082031-83.792969 0-151.71875 92.265625-151.71875 206.082031 0 113.8125 67.925781 206.078125 151.71875 206.078125 83.789062 0 151.714844-92.265625 151.714844-206.078125zm0 0" fill="#fce6d4"/><path d="m296.3125 0c-33.566406 0-64.585938 14.804688-89.714844 39.871094 25.96875 35.289062 81.617188 98.039062 167.667969 130.660156 28.539063 10.816406 52.941406 22.789062 73.699219 34.804688-.292969-113.472657-68.042969-205.335938-151.652344-205.335938zm0 0" fill="#efd4bf"/><path d="m297.359375 371.070312c-34.242187 0-58.765625-26.367187-70.335937-42.085937-23.335938-31.699219-36.722657-76.496094-36.722657-122.902344 0-46.410156 13.386719-91.207031 36.722657-122.90625 11.570312-15.71875 36.09375-42.085937 70.335937-42.085937s58.765625 26.367187 70.335937 42.085937c23.335938 31.699219 36.722657 76.496094 36.722657 122.90625 0 46.40625-13.386719 91.203125-36.722657 122.902344-11.570312 15.71875-36.09375 42.085937-70.335937 42.085937zm0-293.5625c-18.902344 0-34.980469 19.0625-41.011719 27.257813-18.832031 25.578125-29.628906 62.503906-29.628906 101.316406 0 38.808594 10.796875 75.738281 29.628906 101.3125 6.035156 8.199219 22.109375 27.261719 41.011719 27.261719 18.90625 0 34.980469-19.0625 41.011719-27.261719 18.832031-25.574219 29.632812-62.503906 29.632812-101.3125 0-38.8125-10.800781-75.738281-29.632812-101.316406-6.03125-8.195313-22.109375-27.257813-41.011719-27.257813zm0 0" fill="#ff737d"/><path d="m318.839844 206.082031c0-27.578125-10.085938-49.933593-22.527344-49.933593-12.445312 0-22.53125 22.355468-22.53125 49.933593 0 27.574219 10.085938 49.929688 22.53125 49.929688 12.441406 0 22.527344-22.355469 22.527344-49.929688zm0 0" fill="#ff737d"/><path d="m110.621094 144.949219h-60.917969c-10.773437 0-16.738281 12.484375-9.972656 20.863281l21.855469 27.066406c6.21875 7.703125 6.21875 18.699219 0 26.402344l-21.855469 27.066406c-6.765625 8.378906-.800781 20.863282 9.972656 20.863282h60.917969c11.710937 0 22.761718-5.4375 29.90625-14.714844l35.746094-46.414063-35.746094-46.417969c-7.144532-9.277343-18.195313-14.714843-29.90625-14.714843zm0 0" fill="#ffeb99"/><path d="m110.621094 144.949219h-60.917969c-10.773437 0-16.738281 12.484375-9.972656 20.863281l21.855469 27.066406c3.109374 3.851563 4.664062 8.527344 4.664062 13.203125h110.023438l-35.746094-46.417969c-7.144532-9.277343-18.195313-14.714843-29.90625-14.714843zm0 0" fill="#ffde55"/><path d="m287.824219 224.148438h-161.304688c-9.980469 0-18.070312-8.089844-18.070312-18.066407 0-9.980469 8.089843-18.070312 18.070312-18.070312h161.304688c9.976562 0 18.066406 8.089843 18.066406 18.070312 0 9.976563-8.089844 18.066407-18.066406 18.066407zm0 0" fill="#b2785b"/><path d="m95.121094 103.988281h-72.097656c-12.03125 0-21.789063-9.753906-21.789063-21.789062 0-12.03125 9.753906-21.785157 21.789063-21.785157h72.097656c12.03125 0 21.785156 9.753907 21.785156 21.785157 0 12.035156-9.753906 21.789062-21.785156 21.789062zm0 0" fill="#abebf4"/><path d="m232.308594 351.746094h-93.617188c-12.03125 0-21.785156-9.753906-21.785156-21.785156 0-12.035157 9.753906-21.789063 21.785156-21.789063h93.617188c12.035156 0 21.789062 9.753906 21.789062 21.789063 0 12.03125-9.753906 21.785156-21.789062 21.785156zm0 0" fill="#8ed7e8"/><path d="m48.710938 351.746094h-26.925782c-12.03125 0-21.785156-9.753906-21.785156-21.785156 0-12.035157 9.753906-21.789063 21.785156-21.789063h26.925782c12.03125 0 21.785156 9.753906 21.785156 21.789063 0 12.03125-9.753906 21.785156-21.785156 21.785156zm0 0" fill="#ccf8ff"/><path d="m297.359375 41.089844c-27.675781 0-49.5 17.789062-62.773437 32.691406 7.621093 8.328125 16.265624 17.019531 25.855468 25.792969 7.777344-9.101563 21.65625-22.070313 36.917969-22.070313 18.90625 0 34.980469 19.0625 41.011719 27.257813 12.171875 16.53125 21.089844 38.285156 25.800781 61.742187 3.691406 1.558594 7.332031 2.582032 11.144531 4.027344 9.769532 3.699219 19.121094 8.042969 27.949219 11.96875-3.769531-37.558594-16.304687-73.15625-35.566406-99.324219-11.574219-15.71875-36.097657-42.085937-70.339844-42.085937zm0 0" fill="#d65b5b"/></svg>