<svg id="Capa_1" enable-background="new 0 0 512 512" height="512" viewBox="0 0 512 512" width="512" xmlns="http://www.w3.org/2000/svg"><g><g><g><g><g><g><g><circle cx="256" cy="256" fill="#7584f2" r="256"/></g></g></g></g></g></g><path d="m512 256c0-21.283-2.597-41.959-7.492-61.729l-116.184-116.185-4.623 39.058-54.058-54.058-205.967 370.827 70.595 70.595c19.77 4.895 40.446 7.492 61.729 7.492 141.385 0 256-114.615 256-256z" fill="#4253ce"/><g><path d="m78.086 123.676h355.827v264.648h-355.827z" fill="#ffce00" transform="matrix(0 1 -1 0 512 0)"/></g><g><path d="m256.12 78.086h132.203v355.827h-132.203z" fill="#fdba12"/></g><g><path d="m118.459 158.576h275.082v194.847h-275.082z" fill="#fff" transform="matrix(0 1 -1 0 512 0)"/></g><g><path d="m256.12 118.459h97.303v275.083h-97.303z" fill="#e9edf5"/></g><g><path d="m290.618 142.686h-69.236c-21.518 0-39.024-17.506-39.024-39.024v-40.576h147.285v40.576c0 21.518-17.506 39.024-39.025 39.024zm-78.261-49.6v10.576c0 4.976 4.048 9.024 9.024 9.024h69.236c4.977 0 9.024-4.048 9.024-9.024v-10.576z" fill="#555a66"/></g><g><path d="m256.12 63.086v30h43.522v10.576c0 4.976-4.048 9.024-9.024 9.024h-34.498v30h34.498c21.519 0 39.024-17.506 39.024-39.024v-40.576z" fill="#333940"/></g><g><path d="m222.841 236.029-2.696-7.844h-21.49l-2.697 7.844h-15.934l20.51-54.501h17.649l20.591 54.501zm-13.482-40.61-6.946 20.509h13.891z" fill="#7584f2"/></g><g><path d="m185.826 342.562v-54.501h30.887c10.786 0 15.934 7.027 15.934 13.891 0 6.782-4.167 11.358-9.315 12.502 5.802.899 10.377 6.455 10.377 13.319 0 7.926-5.311 14.79-16.015 14.79h-31.868zm32.521-38.159c0-2.615-1.961-4.494-4.821-4.494h-13.646v9.07h13.645c2.861 0 4.822-1.879 4.822-4.576zm1.062 21.409c0-2.697-1.961-4.903-5.393-4.903h-14.136v9.805h14.136c3.35 0 5.393-1.961 5.393-4.902z" fill="#7584f2"/></g><g><path d="m256.12 201.302h73.55v30h-73.55z" fill="#bec3d2"/></g><g><path d="m256.12 305.555h73.55v30h-73.55z" fill="#bec3d2"/></g></g></svg>