<svg height="511pt" viewBox="0 0 511.99994 511" width="511pt" xmlns="http://www.w3.org/2000/svg"><path d="m347.726562 164.773438c-39.707031-39.703126-91.863281-59.566407-144.023437-59.578126-52.1875-.019531-104.386719 19.84375-144.121094 59.578126-79.441406 79.445312-79.441406 208.703124 0 288.144531 39.734375 39.738281 91.933594 59.601562 144.121094 59.582031 52.160156-.011719 104.316406-19.875 144.023437-59.582031 79.441407-79.441407 79.441407-208.699219 0-288.144531zm0 0" fill="#fede81"/><path d="m347.726562 452.917969c-39.707031 39.707031-91.863281 59.570312-144.023437 59.582031v-407.304688c52.160156.011719 104.316406 19.875 144.023437 59.578126 79.441407 79.445312 79.441407 208.703124 0 288.144531zm0 0" fill="#feaf45"/><path d="m299.207031 404.402344c-26.332031 26.332031-60.917969 39.496094-95.503906 39.503906-34.625.023438-69.25-13.152344-95.605469-39.503906-52.6875-52.6875-52.6875-138.421875 0-191.109375 26.355469-26.355469 60.980469-39.527344 95.605469-39.515625 34.585937.007812 69.171875 13.179687 95.503906 39.515625 52.691407 52.6875 52.691407 138.421875 0 191.109375zm0 0" fill="#feaf45"/><path d="m299.207031 404.402344c-26.332031 26.332031-60.917969 39.496094-95.503906 39.503906v-270.128906c34.585937.007812 69.171875 13.179687 95.503906 39.515625 52.691407 52.6875 52.691407 138.421875 0 191.109375zm0 0" fill="#fa6f2c"/><path d="m249.871094 354.964844c-12.730469 12.730468-29.445313 19.09375-46.167969 19.09375s-33.433594-6.363282-46.167969-19.09375c-25.460937-25.453125-25.460937-66.882813 0-92.335938 12.734375-12.730468 29.445313-19.09375 46.167969-19.09375s33.4375 6.363282 46.167969 19.09375c25.464844 25.453125 25.464844 66.882813 0 92.335938zm0 0" fill="#ff6464"/><path d="m249.871094 354.964844c-12.730469 12.730468-29.445313 19.09375-46.167969 19.09375v-130.523438c16.722656 0 33.4375 6.363282 46.167969 19.09375 25.464844 25.453125 25.464844 66.882813 0 92.335938zm0 0" fill="#f72828"/><path d="m511 68.859375c-2.246094-6.449219-7.859375-10.945313-14.644531-11.726563l-36.746094-4.242187-4.238281-36.742187c-.785156-6.789063-5.277344-12.398438-11.726563-14.648438-6.453125-2.246094-13.460937-.644531-18.292969 4.1875l-72.636718 72.636719c-3.832032 3.832031-5.671875 9.117187-5.050782 14.503906l5.253907 45.539063-157.183594 157.183593c-5.859375 5.859375-5.859375 15.359375 0 21.21875 5.855469 5.859375 15.355469 5.859375 21.214844 0l157.183593-157.1875 45.539063 5.257813c5.382813.621094 10.671875-1.222656 14.503906-5.054688l72.636719-72.636718c4.832031-4.832032 6.433594-11.839844 4.1875-18.289063zm0 0" fill="#b2e3fc"/></svg>